<svg width="40" height="40" viewBox="0 0 40 40" fill="none" xmlns="http://www.w3.org/2000/svg">
<path fill-rule="evenodd" clip-rule="evenodd" d="M5 9.16668C5 5.94502 7.61167 3.33334 10.8333 3.33334H15.8333C19.055 3.33334 21.6667 5.94502 21.6667 9.16668V14.1667C21.6667 17.3883 19.055 20 15.8333 20H10.8333C7.61167 20 5 17.3883 5 14.1667V9.16668ZM10.8333 5.00001C8.53215 5.00001 6.66667 6.86549 6.66667 9.16668V14.1667C6.66667 16.4679 8.53215 18.3333 10.8333 18.3333H15.8333C18.1345 18.3333 20 16.4679 20 14.1667V9.16668C20 6.86549 18.1345 5.00001 15.8333 5.00001H10.8333Z" fill="#1657FF"/>
<path fill-rule="evenodd" clip-rule="evenodd" d="M5 25.8333C5 23.5322 6.86548 21.6667 9.16667 21.6667H14.1667C16.4679 21.6667 18.3333 23.5322 18.3333 25.8333V30.8333C18.3333 33.1345 16.4679 35 14.1667 35H9.16667C6.86548 35 5 33.1345 5 30.8333V25.8333ZM9.16667 23.3333C7.78595 23.3333 6.66667 24.4526 6.66667 25.8333V30.8333C6.66667 32.214 7.78595 33.3333 9.16667 33.3333H14.1667C15.5474 33.3333 16.6667 32.214 16.6667 30.8333V25.8333C16.6667 24.4526 15.5474 23.3333 14.1667 23.3333H9.16667Z" fill="#1657FF"/>
<path fill-rule="evenodd" clip-rule="evenodd" d="M23.3333 7.50001C23.3333 5.19882 25.1988 3.33334 27.5 3.33334H32.5C34.8012 3.33334 36.6667 5.19882 36.6667 7.50001V12.5C36.6667 14.8012 34.8012 16.6667 32.5 16.6667H27.5C25.1988 16.6667 23.3333 14.8012 23.3333 12.5V7.50001ZM27.5 5.00001C26.1193 5.00001 25 6.1193 25 7.50001V12.5C25 13.8807 26.1193 15 27.5 15H32.5C33.8807 15 35 13.8807 35 12.5V7.50001C35 6.1193 33.8807 5.00001 32.5 5.00001H27.5Z" fill="#FF16A2"/>
<path fill-rule="evenodd" clip-rule="evenodd" d="M20 24.1667C20 20.945 22.6117 18.3333 25.8333 18.3333H30.8333C34.055 18.3333 36.6667 20.945 36.6667 24.1667V29.1667C36.6667 32.3883 34.055 35 30.8333 35H25.8333C22.6117 35 20 32.3883 20 29.1667V24.1667ZM25.8333 20C23.5321 20 21.6667 21.8655 21.6667 24.1667V29.1667C21.6667 31.4679 23.5321 33.3333 25.8333 33.3333H30.8333C33.1345 33.3333 35 31.4679 35 29.1667V24.1667C35 21.8655 33.1345 20 30.8333 20H25.8333Z" fill="#1657FF"/>
</svg>
